<svg width="561" height="477" viewBox="0 0 561 477" fill="none" xmlns="http://www.w3.org/2000/svg">
<path d="M467.859 207.314C444.326 228.814 428.894 298.241 428.508 384.689C428.122 436.648 429.28 449.637 435.067 462.179C442.397 477.856 452.813 480.543 462.458 469.345C471.331 459.043 473.26 445.158 472.102 402.606C470.559 368.564 471.331 364.533 477.504 364.533C482.905 364.533 484.062 368.564 484.062 390.96C484.062 424.554 490.62 463.522 497.179 471.585C505.666 480.991 520.712 474.272 526.499 458.595C529.585 449.637 530.743 432.168 529.585 409.325L527.656 373.491H538.073C551.189 373.491 563.149 363.189 560.063 354.231C558.519 348.856 553.89 347.96 541.159 349.752C531.9 351.096 523.027 354.231 520.712 356.471C518.783 358.71 516.854 381.106 516.854 405.741C516.854 437.991 515.311 451.429 512.225 452.772C508.367 454.564 507.209 442.918 507.209 403.95V352.887L518.397 343.033C532.672 330.939 552.733 284.356 556.591 254.794C562.377 214.033 550.418 190.742 529.971 203.283C518.397 210.898 499.494 260.169 492.164 304.064C486.762 336.762 484.834 342.137 478.275 342.137C460.915 342.585 458.986 347.96 458.986 399.023C458.986 465.762 451.656 464.866 450.112 397.679L448.955 345.721L463.229 327.804C489.077 294.21 505.28 235.533 494.864 212.242C488.306 197.908 480.204 196.117 467.859 207.314ZM480.59 252.106C474.417 286.148 453.199 330.491 453.199 309.439C453.199 297.346 468.63 233.294 473.26 227.023C481.361 215.377 485.219 227.919 480.59 252.106ZM541.931 242.7C541.931 269.575 533.443 299.585 520.712 317.502L511.453 330.939L511.067 319.293C511.067 305.408 524.57 243.148 530.357 230.158C537.301 214.929 541.931 219.856 541.931 242.7Z" fill="black"/>
<path d="M329.745 223.44C310.456 233.742 299.268 247.18 288.851 272.711C278.049 298.69 276.506 342.586 284.993 366.325C300.039 407.981 346.72 416.492 380.284 383.794C418.091 347.065 421.949 258.377 387.228 228.815C373.34 217.169 346.72 214.93 329.745 223.44ZM365.624 243.148C377.197 248.075 387.614 273.159 387.614 295.107C387.614 352.44 357.522 393.2 326.273 377.971C310.456 370.804 304.669 354.232 305.055 320.19C305.44 263.305 332.832 228.815 365.624 243.148Z" fill="black"/>
<path d="M440.958 3.83889C432.612 9.65327 426.602 24.7707 420.259 58.4941C415.585 82.5269 413.248 88.7289 407.572 91.0547C392.214 96.0938 375.187 121.677 375.187 139.12C375.187 149.199 354.822 160.052 343.136 156.951C331.785 153.462 333.121 149.199 348.144 141.834C370.847 130.205 374.186 96.4814 353.152 90.2794C334.456 84.8527 311.753 111.599 311.753 139.12C311.753 143.384 308.081 149.586 303.407 153.075C284.711 167.417 271.69 145.322 282.374 117.801C286.714 106.947 290.052 105.397 293.057 113.925C295.728 122.452 301.404 120.902 305.744 110.048C313.089 91.4423 296.73 82.1393 281.372 96.0938C273.359 103.459 273.025 103.459 265.347 96.0938C255.665 86.7908 247.652 86.7908 240.641 95.7062C229.957 109.661 236.634 126.329 247.986 114.312C251.324 110.824 254.663 108.11 255.665 108.11C260.339 108.11 261.34 128.267 257.334 141.834C252.66 159.277 243.646 161.603 242.31 145.71C240.307 127.491 224.949 135.244 224.949 154.625C224.949 165.091 233.963 177.883 241.308 177.883C243.312 177.883 249.655 175.169 254.997 172.068C263.343 167.029 265.68 167.029 274.027 172.068C286.38 179.821 294.726 179.433 306.745 170.906C316.427 163.928 317.095 163.928 326.777 170.906C338.796 179.433 348.144 179.821 363.836 172.068C374.52 167.029 376.523 167.029 382.866 172.068C392.548 179.821 399.225 179.433 409.575 170.13L418.255 161.99L421.928 170.13C425.934 179.046 434.615 180.596 437.286 172.844C438.287 169.743 437.619 160.44 435.95 151.912C433.279 137.957 434.281 132.918 444.297 108.498C463.995 59.657 469.336 20.5068 458.319 4.61414C453.979 -1.20024 448.971 -1.58787 440.958 3.83889ZM451.976 36.3994C451.976 51.5168 439.957 98.8072 435.282 102.296C433.279 103.459 431.944 104.234 431.944 103.459C431.944 92.9928 439.623 35.6242 441.96 28.2593C446.3 15.4677 451.976 19.7315 451.976 36.3994ZM351.149 116.638C352.151 123.228 337.795 137.182 332.119 134.469C330.45 133.693 330.784 127.879 333.788 120.514C338.796 106.56 349.146 104.234 351.149 116.638ZM415.251 127.104C415.251 152.687 404.901 166.254 395.219 152.687C390.211 145.71 393.55 127.104 402.23 116.25C412.246 103.846 415.251 106.172 415.251 127.104Z" fill="black"/>
<path d="M75.7118 19.3439C55.6801 23.6078 31.642 36.787 29.305 44.1519C24.9647 56.9436 32.9774 58.1064 52.3414 48.0282C77.715 34.4613 112.103 31.3603 128.128 41.0509C151.499 55.0054 138.812 83.6897 107.429 88.3412C95.7435 90.2794 92.7388 92.2175 92.0711 99.1947C91.0695 106.56 92.4049 108.11 99.416 108.11C104.09 108.11 112.103 112.374 117.111 117.413C126.125 126.716 126.125 127.491 121.451 137.957C115.441 150.361 96.0774 159.277 78.0488 157.726C66.6975 156.563 66.3637 156.176 67.3652 141.058C68.3668 126.329 75.3779 85.2402 80.052 67.0218C82.389 57.3312 74.0425 51.9044 65.0282 57.7188C58.0171 61.9827 48.669 111.211 45.6642 157.339L43.661 185.635H52.3414C57.0155 185.635 62.0235 183.697 63.025 181.759C64.0266 179.433 71.3716 177.883 79.3843 177.883C101.753 177.883 126.459 167.804 136.141 154.238C147.826 138.345 147.826 119.351 136.475 108.498L127.794 100.745L139.813 94.1556C155.171 85.6278 161.514 75.162 161.514 56.5559C161.514 23.2201 125.457 7.7151 75.7118 19.3439Z" fill="black"/>
<path d="M179.209 92.6052C167.857 98.0319 158.175 119.351 158.175 138.345C158.175 151.912 160.178 157.339 167.857 166.642C173.533 172.844 181.212 177.883 185.886 177.883C197.905 177.883 214.264 160.44 218.27 143.772C221.943 128.267 217.937 104.234 210.258 96.869C203.914 90.667 187.555 88.3413 179.209 92.6052ZM197.571 112.762C207.587 124.39 199.24 158.502 186.554 158.502C179.542 158.502 173.867 143.384 176.204 130.205C179.542 110.048 188.891 102.683 197.571 112.762Z" fill="black"/>
<path d="M112.23 198.643C121.704 193.281 133.296 193.281 142.77 198.643L222.189 243.597C231.909 249.099 237.918 259.405 237.918 270.575V359.425C237.918 370.595 231.909 380.901 222.189 386.403L142.77 431.357C133.296 436.719 121.704 436.719 112.23 431.357L32.8114 386.403C23.0908 380.901 17.0818 370.595 17.0818 359.425V270.575C17.0818 259.405 23.0908 249.099 32.8114 243.597L112.23 198.643Z" fill="black"/>
<rect x="3" y="3" width="67.25" height="30" rx="3" fill="white"/>
<rect x="3.5" y="3.5" width="66.25" height="29" rx="2.5" stroke="black" stroke-opacity="0.14902"/>
<path d="M14.3438 15C14.2969 14.6042 14.1068 14.2969 13.7734 14.0781C13.4401 13.8594 13.0313 13.75 12.5469 13.75C12.1927 13.75 11.8828 13.8073 11.6172 13.9219C11.3542 14.0365 11.1484 14.194 11 14.3945C10.8542 14.5951 10.7813 14.8229 10.7813 15.0781C10.7813 15.2917 10.832 15.4753 10.9336 15.6289C11.0378 15.7799 11.1706 15.9062 11.332 16.0078C11.4935 16.1068 11.6628 16.1888 11.8398 16.2539C12.0169 16.3164 12.1797 16.3672 12.3281 16.4062L13.1406 16.625C13.349 16.6797 13.5807 16.7552 13.8359 16.8516C14.0938 16.9479 14.3398 17.0794 14.5742 17.2461C14.8112 17.4102 15.0065 17.6211 15.1602 17.8789C15.3138 18.1367 15.3906 18.4531 15.3906 18.8281C15.3906 19.2604 15.2773 19.651 15.0508 20C14.8268 20.349 14.4987 20.6263 14.0664 20.832C13.6367 21.0378 13.1146 21.1406 12.5 21.1406C11.9271 21.1406 11.431 21.0482 11.0117 20.8633C10.5951 20.6784 10.2669 20.4206 10.0273 20.0898C9.79036 19.7591 9.65625 19.375 9.625 18.9375H10.625C10.651 19.2396 10.7526 19.4896 10.9297 19.6875C11.1094 19.8828 11.3359 20.0286 11.6094 20.125C11.8854 20.2187 12.1823 20.2656 12.5 20.2656C12.8698 20.2656 13.2018 20.2057 13.4961 20.0859C13.7904 19.9635 14.0234 19.7943 14.1953 19.5781C14.3672 19.3594 14.4531 19.1042 14.4531 18.8125C14.4531 18.5469 14.3789 18.3307 14.2305 18.1641C14.082 17.9974 13.8867 17.862 13.6445 17.7578C13.4023 17.6536 13.1406 17.5625 12.8594 17.4844L11.875 17.2031C11.25 17.0234 10.7552 16.7669 10.3906 16.4336C10.026 16.1003 9.84375 15.6641 9.84375 15.125C9.84375 14.6771 9.96484 14.2865 10.207 13.9531C10.4518 13.6172 10.7799 13.3568 11.1914 13.1719C11.6055 12.9844 12.0677 12.8906 12.5781 12.8906C13.0938 12.8906 13.5521 12.9831 13.9531 13.168C14.3542 13.3503 14.6719 13.6003 14.9062 13.918C15.1432 14.2357 15.2682 14.5964 15.2813 15H14.3438ZM19.374 21.125C18.7959 21.125 18.2972 20.9974 17.8779 20.7422C17.4613 20.4844 17.1396 20.125 16.9131 19.6641C16.6891 19.2005 16.5771 18.6615 16.5771 18.0469C16.5771 17.4323 16.6891 16.8906 16.9131 16.4219C17.1396 15.9505 17.4548 15.5833 17.8584 15.3203C18.2646 15.0547 18.7386 14.9219 19.2803 14.9219C19.5928 14.9219 19.9014 14.974 20.2061 15.0781C20.5107 15.1823 20.7881 15.3516 21.0381 15.5859C21.2881 15.8177 21.4873 16.125 21.6357 16.5078C21.7842 16.8906 21.8584 17.362 21.8584 17.9219V18.3125H17.2334V17.5156H20.9209C20.9209 17.1771 20.8532 16.875 20.7178 16.6094C20.585 16.3437 20.3949 16.1341 20.1475 15.9805C19.9027 15.8268 19.6136 15.75 19.2803 15.75C18.9131 15.75 18.5954 15.8411 18.3271 16.0234C18.0615 16.2031 17.8571 16.4375 17.7139 16.7266C17.5706 17.0156 17.499 17.3255 17.499 17.6562V18.1875C17.499 18.6406 17.5771 19.0247 17.7334 19.3398C17.8923 19.6523 18.1123 19.8906 18.3936 20.0547C18.6748 20.2161 19.0016 20.2969 19.374 20.2969C19.6162 20.2969 19.835 20.263 20.0303 20.1953C20.2282 20.125 20.3988 20.0208 20.542 19.8828C20.6852 19.7422 20.7959 19.5677 20.874 19.3594L21.7646 19.6094C21.6709 19.9115 21.5133 20.1771 21.292 20.4062C21.0706 20.6328 20.7972 20.8099 20.4717 20.9375C20.1462 21.0625 19.7803 21.125 19.374 21.125ZM25.6982 21.125C25.1357 21.125 24.6514 20.9922 24.2451 20.7266C23.8389 20.4609 23.5264 20.0951 23.3076 19.6289C23.0889 19.1628 22.9795 18.6302 22.9795 18.0312C22.9795 17.4219 23.0915 16.8841 23.3154 16.418C23.542 15.9492 23.8571 15.5833 24.2607 15.3203C24.667 15.0547 25.141 14.9219 25.6826 14.9219C26.1045 14.9219 26.4847 15 26.8232 15.1562C27.1618 15.3125 27.4391 15.5312 27.6553 15.8125C27.8714 16.0937 28.0055 16.4219 28.0576 16.7969H27.1357C27.0654 16.5234 26.9092 16.2812 26.667 16.0703C26.4274 15.8568 26.1045 15.75 25.6982 15.75C25.3389 15.75 25.0238 15.8437 24.7529 16.0312C24.4847 16.2161 24.2751 16.4779 24.124 16.8164C23.9756 17.1523 23.9014 17.5469 23.9014 18C23.9014 18.4635 23.9743 18.8672 24.1201 19.2109C24.2686 19.5547 24.4769 19.8216 24.7451 20.0117C25.016 20.2018 25.3337 20.2969 25.6982 20.2969C25.9378 20.2969 26.1553 20.2552 26.3506 20.1719C26.5459 20.0885 26.7113 19.9688 26.8467 19.8125C26.9821 19.6562 27.0785 19.4687 27.1357 19.25H28.0576C28.0055 19.6042 27.8766 19.9232 27.6709 20.207C27.4678 20.4883 27.1982 20.7122 26.8623 20.8789C26.529 21.043 26.141 21.125 25.6982 21.125ZM32.0146 15V15.7812H28.9053V15H32.0146ZM29.8115 13.5625H30.7334V19.2812C30.7334 19.5417 30.7712 19.737 30.8467 19.8672C30.9248 19.9948 31.0238 20.0807 31.1436 20.125C31.266 20.1667 31.3949 20.1875 31.5303 20.1875C31.6318 20.1875 31.7152 20.1823 31.7803 20.1719C31.8454 20.1589 31.8975 20.1484 31.9365 20.1406L32.124 20.9687C32.0615 20.9922 31.9743 21.0156 31.8623 21.0391C31.7503 21.0651 31.6084 21.0781 31.4365 21.0781C31.1761 21.0781 30.9209 21.0221 30.6709 20.9102C30.4235 20.7982 30.2178 20.6276 30.0537 20.3984C29.8923 20.1693 29.8115 19.8802 29.8115 19.5312V13.5625ZM33.4014 21V15H34.3232V21H33.4014ZM33.8701 14C33.6904 14 33.5355 13.9388 33.4053 13.8164C33.2777 13.694 33.2139 13.5469 33.2139 13.375C33.2139 13.2031 33.2777 13.056 33.4053 12.9336C33.5355 12.8112 33.6904 12.75 33.8701 12.75C34.0498 12.75 34.2035 12.8112 34.3311 12.9336C34.4613 13.056 34.5264 13.2031 34.5264 13.375C34.5264 13.5469 34.4613 13.694 34.3311 13.8164C34.2035 13.9388 34.0498 14 33.8701 14ZM38.4492 21.125C37.9076 21.125 37.4323 20.9961 37.0234 20.7383C36.6172 20.4805 36.2995 20.1198 36.0703 19.6562C35.8438 19.1927 35.7305 18.651 35.7305 18.0312C35.7305 17.4062 35.8438 16.8607 36.0703 16.3945C36.2995 15.9284 36.6172 15.5664 37.0234 15.3086C37.4323 15.0508 37.9076 14.9219 38.4492 14.9219C38.9909 14.9219 39.4648 15.0508 39.8711 15.3086C40.2799 15.5664 40.5977 15.9284 40.8242 16.3945C41.0534 16.8607 41.168 17.4062 41.168 18.0312C41.168 18.651 41.0534 19.1927 40.8242 19.6562C40.5977 20.1198 40.2799 20.4805 39.8711 20.7383C39.4648 20.9961 38.9909 21.125 38.4492 21.125ZM38.4492 20.2969C38.8607 20.2969 39.1992 20.1914 39.4648 19.9805C39.7305 19.7695 39.9271 19.4922 40.0547 19.1484C40.1823 18.8047 40.2461 18.4323 40.2461 18.0312C40.2461 17.6302 40.1823 17.2565 40.0547 16.9102C39.9271 16.5638 39.7305 16.2839 39.4648 16.0703C39.1992 15.8568 38.8607 15.75 38.4492 15.75C38.0378 15.75 37.6992 15.8568 37.4336 16.0703C37.168 16.2839 36.9714 16.5638 36.8438 16.9102C36.7161 17.2565 36.6523 17.6302 36.6523 18.0312C36.6523 18.4323 36.7161 18.8047 36.8438 19.1484C36.9714 19.4922 37.168 19.7695 37.4336 19.9805C37.6992 20.1914 38.0378 20.2969 38.4492 20.2969ZM43.4971 17.3906V21H42.5752V15H43.4658V15.9375H43.5439C43.6846 15.6328 43.8981 15.388 44.1846 15.2031C44.471 15.0156 44.8408 14.9219 45.2939 14.9219C45.7002 14.9219 46.0557 15.0052 46.3604 15.1719C46.665 15.3359 46.902 15.5859 47.0713 15.9219C47.2406 16.2552 47.3252 16.6771 47.3252 17.1875V21H46.4033V17.25C46.4033 16.7786 46.2809 16.4115 46.0361 16.1484C45.7913 15.8828 45.4554 15.75 45.0283 15.75C44.734 15.75 44.471 15.8138 44.2393 15.9414C44.0101 16.069 43.8291 16.2552 43.6963 16.5C43.5635 16.7448 43.4971 17.0417 43.4971 17.3906ZM52.3379 21L55.916 13.9219V13.8594H51.791V13H56.916V13.9062L53.3535 21H52.3379ZM60.8096 21.1094C60.221 21.1094 59.7197 20.9492 59.3057 20.6289C58.8916 20.306 58.5752 19.8385 58.3564 19.2266C58.1377 18.612 58.0283 17.8698 58.0283 17C58.0283 16.1354 58.1377 15.3971 58.3564 14.7852C58.5778 14.1706 58.8955 13.7018 59.3096 13.3789C59.7262 13.0534 60.2262 12.8906 60.8096 12.8906C61.3929 12.8906 61.8916 13.0534 62.3057 13.3789C62.7223 13.7018 63.04 14.1706 63.2588 14.7852C63.4801 15.3971 63.5908 16.1354 63.5908 17C63.5908 17.8698 63.4814 18.612 63.2627 19.2266C63.0439 19.8385 62.7275 20.306 62.3135 20.6289C61.8994 20.9492 61.3981 21.1094 60.8096 21.1094ZM60.8096 20.25C61.3929 20.25 61.846 19.9687 62.1689 19.4062C62.4919 18.8437 62.6533 18.0417 62.6533 17C62.6533 16.3073 62.5791 15.7174 62.4307 15.2305C62.2848 14.7435 62.0739 14.3724 61.7979 14.1172C61.5244 13.862 61.195 13.7344 60.8096 13.7344C60.2314 13.7344 59.7796 14.0195 59.4541 14.5898C59.1286 15.1576 58.9658 15.9609 58.9658 17C58.9658 17.6927 59.0387 18.2812 59.1846 18.7656C59.3304 19.25 59.54 19.6185 59.8135 19.8711C60.0895 20.1237 60.4215 20.25 60.8096 20.25Z" fill="black"/>
</svg>
