<svg width="561" height="477" viewBox="0 0 561 477" fill="none" xmlns="http://www.w3.org/2000/svg">
<path d="M467.859 207.314C444.326 228.814 428.894 298.241 428.508 384.689C428.122 436.648 429.28 449.637 435.067 462.179C442.397 477.856 452.813 480.543 462.458 469.345C471.331 459.043 473.26 445.158 472.102 402.606C470.559 368.564 471.331 364.533 477.504 364.533C482.905 364.533 484.062 368.564 484.062 390.96C484.062 424.554 490.62 463.522 497.179 471.585C505.666 480.991 520.712 474.272 526.499 458.595C529.585 449.637 530.743 432.168 529.585 409.325L527.656 373.491H538.073C551.189 373.491 563.149 363.189 560.063 354.231C558.519 348.856 553.89 347.96 541.159 349.752C531.9 351.096 523.027 354.231 520.712 356.471C518.783 358.71 516.854 381.106 516.854 405.741C516.854 437.991 515.311 451.429 512.225 452.772C508.367 454.564 507.209 442.918 507.209 403.95V352.887L518.397 343.033C532.672 330.939 552.733 284.356 556.591 254.794C562.377 214.033 550.418 190.742 529.971 203.283C518.397 210.898 499.494 260.169 492.164 304.064C486.762 336.762 484.834 342.137 478.275 342.137C460.915 342.585 458.986 347.96 458.986 399.023C458.986 465.762 451.656 464.866 450.112 397.679L448.955 345.721L463.229 327.804C489.077 294.21 505.28 235.533 494.864 212.242C488.306 197.908 480.204 196.117 467.859 207.314ZM480.59 252.106C474.417 286.148 453.199 330.491 453.199 309.439C453.199 297.346 468.63 233.294 473.26 227.023C481.361 215.377 485.219 227.919 480.59 252.106ZM541.931 242.7C541.931 269.575 533.443 299.585 520.712 317.502L511.453 330.939L511.067 319.293C511.067 305.408 524.57 243.148 530.357 230.158C537.301 214.929 541.931 219.856 541.931 242.7Z" fill="black"/>
<path d="M329.745 223.44C310.456 233.742 299.268 247.18 288.851 272.711C278.049 298.69 276.506 342.586 284.993 366.325C300.039 407.981 346.72 416.492 380.284 383.794C418.091 347.065 421.949 258.377 387.228 228.815C373.34 217.169 346.72 214.93 329.745 223.44ZM365.624 243.148C377.197 248.075 387.614 273.159 387.614 295.107C387.614 352.44 357.522 393.2 326.273 377.971C310.456 370.804 304.669 354.232 305.055 320.19C305.44 263.305 332.832 228.815 365.624 243.148Z" fill="black"/>
<path d="M440.958 3.83889C432.612 9.65327 426.602 24.7707 420.259 58.4941C415.585 82.5269 413.248 88.7289 407.572 91.0547C392.214 96.0938 375.187 121.677 375.187 139.12C375.187 149.199 354.822 160.052 343.136 156.951C331.785 153.462 333.121 149.199 348.144 141.834C370.847 130.205 374.186 96.4814 353.152 90.2794C334.456 84.8527 311.753 111.599 311.753 139.12C311.753 143.384 308.081 149.586 303.407 153.075C284.711 167.417 271.69 145.322 282.374 117.801C286.714 106.947 290.052 105.397 293.057 113.925C295.728 122.452 301.404 120.902 305.744 110.048C313.089 91.4423 296.73 82.1393 281.372 96.0938C273.359 103.459 273.025 103.459 265.347 96.0938C255.665 86.7908 247.652 86.7908 240.641 95.7062C229.957 109.661 236.634 126.329 247.986 114.312C251.324 110.824 254.663 108.11 255.665 108.11C260.339 108.11 261.34 128.267 257.334 141.834C252.66 159.277 243.646 161.603 242.31 145.71C240.307 127.491 224.949 135.244 224.949 154.625C224.949 165.091 233.963 177.883 241.308 177.883C243.312 177.883 249.655 175.169 254.997 172.068C263.343 167.029 265.68 167.029 274.027 172.068C286.38 179.821 294.726 179.433 306.745 170.906C316.427 163.928 317.095 163.928 326.777 170.906C338.796 179.433 348.144 179.821 363.836 172.068C374.52 167.029 376.523 167.029 382.866 172.068C392.548 179.821 399.225 179.433 409.575 170.13L418.255 161.99L421.928 170.13C425.934 179.046 434.615 180.596 437.286 172.844C438.287 169.743 437.619 160.44 435.95 151.912C433.279 137.957 434.281 132.918 444.297 108.498C463.995 59.657 469.336 20.5068 458.319 4.61414C453.979 -1.20024 448.971 -1.58787 440.958 3.83889ZM451.976 36.3994C451.976 51.5168 439.957 98.8072 435.282 102.296C433.279 103.459 431.944 104.234 431.944 103.459C431.944 92.9928 439.623 35.6242 441.96 28.2593C446.3 15.4677 451.976 19.7315 451.976 36.3994ZM351.149 116.638C352.151 123.228 337.795 137.182 332.119 134.469C330.45 133.693 330.784 127.879 333.788 120.514C338.796 106.56 349.146 104.234 351.149 116.638ZM415.251 127.104C415.251 152.687 404.901 166.254 395.219 152.687C390.211 145.71 393.55 127.104 402.23 116.25C412.246 103.846 415.251 106.172 415.251 127.104Z" fill="black"/>
<path d="M75.7118 19.3439C55.6801 23.6078 31.642 36.787 29.305 44.1519C24.9647 56.9436 32.9774 58.1064 52.3414 48.0282C77.715 34.4613 112.103 31.3603 128.128 41.0509C151.499 55.0054 138.812 83.6897 107.429 88.3412C95.7435 90.2794 92.7388 92.2175 92.0711 99.1947C91.0695 106.56 92.4049 108.11 99.416 108.11C104.09 108.11 112.103 112.374 117.111 117.413C126.125 126.716 126.125 127.491 121.451 137.957C115.441 150.361 96.0774 159.277 78.0488 157.726C66.6975 156.563 66.3637 156.176 67.3652 141.058C68.3668 126.329 75.3779 85.2402 80.052 67.0218C82.389 57.3312 74.0425 51.9044 65.0282 57.7188C58.0171 61.9827 48.669 111.211 45.6642 157.339L43.661 185.635H52.3414C57.0155 185.635 62.0235 183.697 63.025 181.759C64.0266 179.433 71.3716 177.883 79.3843 177.883C101.753 177.883 126.459 167.804 136.141 154.238C147.826 138.345 147.826 119.351 136.475 108.498L127.794 100.745L139.813 94.1556C155.171 85.6278 161.514 75.162 161.514 56.5559C161.514 23.2201 125.457 7.7151 75.7118 19.3439Z" fill="black"/>
<path d="M179.209 92.6052C167.857 98.0319 158.175 119.351 158.175 138.345C158.175 151.912 160.178 157.339 167.857 166.642C173.533 172.844 181.212 177.883 185.886 177.883C197.905 177.883 214.264 160.44 218.27 143.772C221.943 128.267 217.937 104.234 210.258 96.869C203.914 90.667 187.555 88.3413 179.209 92.6052ZM197.571 112.762C207.587 124.39 199.24 158.502 186.554 158.502C179.542 158.502 173.867 143.384 176.204 130.205C179.542 110.048 188.891 102.683 197.571 112.762Z" fill="black"/>
<path d="M112.23 198.643C121.704 193.281 133.296 193.281 142.77 198.643L222.189 243.597C231.909 249.099 237.918 259.405 237.918 270.575V359.425C237.918 370.595 231.909 380.901 222.189 386.403L142.77 431.357C133.296 436.719 121.704 436.719 112.23 431.357L32.8114 386.403C23.0908 380.901 17.0818 370.595 17.0818 359.425V270.575C17.0818 259.405 23.0908 249.099 32.8114 243.597L112.23 198.643Z" fill="black"/>
</svg>
